<?xml version="1.0" standalone="no"?>
<!DOCTYPE svg PUBLIC "-//W3C//DTD SVG 20010904//EN"
 "http://www.w3.org/TR/2001/REC-SVG-20010904/DTD/svg10.dtd">
<svg version="1.0" xmlns="http://www.w3.org/2000/svg"
 width="1515.000000pt" height="1302.000000pt" viewBox="0 0 1515.000000 1302.000000"
 preserveAspectRatio="xMidYMid meet">

<g transform="translate(0.000000,1302.000000) scale(0.100000,-0.100000)"
fill="#000000" stroke="none">
<path d="M8199 11626 c-240 -28 -504 -110 -717 -222 -116 -62 -258 -158 -254
-173 1 -7 -2 -9 -8 -6 -6 4 -46 -21 -88 -56 l-76 -62 -85 17 c-270 53 -449 57
-726 16 -104 -15 -177 -35 -313 -84 -268 -98 -492 -236 -693 -427 -100 -96
-259 -286 -259 -311 0 -4 196 -8 436 -8 l435 0 52 29 c157 87 220 115 322 141
229 59 445 59 685 -2 67 -16 220 -68 261 -88 60 -28 77 -21 147 63 34 42 61
77 58 77 -7 0 155 151 193 180 18 14 41 32 51 42 10 9 27 19 37 22 11 3 28 14
39 24 11 9 29 22 40 29 10 6 18 16 16 23 -1 6 2 9 8 5 6 -4 30 2 53 13 72 34
111 50 152 62 22 7 45 16 50 20 6 4 21 10 35 13 14 3 50 12 80 20 186 51 535
34 695 -33 11 -5 56 -21 100 -36 44 -15 109 -43 145 -62 78 -43 229 -142 272
-180 17 -15 36 -31 43 -37 6 -5 50 -48 97 -94 l86 -84 34 20 c18 11 60 30 93
43 33 13 65 26 70 30 9 7 42 16 85 25 8 2 51 11 95 20 89 19 339 22 435 5 128
-22 218 -45 234 -61 6 -5 18 -9 28 -9 49 0 328 -166 440 -262 138 -118 290
-342 354 -519 50 -141 75 -274 81 -430 l6 -157 46 -5 c155 -17 299 -48 366
-77 11 -5 43 -17 70 -26 164 -59 313 -153 434 -275 135 -136 193 -230 249
-404 22 -72 25 -97 26 -240 0 -136 -3 -172 -22 -240 -60 -215 -156 -347 -399
-550 -101 -84 -118 -117 -118 -230 0 -76 5 -99 26 -145 48 -102 122 -158 237
-180 83 -17 150 -2 229 49 99 64 264 244 380 414 26 37 50 67 55 67 24 0 106
-214 134 -353 21 -100 14 -357 -11 -452 -9 -33 -20 -73 -24 -90 -5 -16 -18
-55 -31 -85 -170 -423 -527 -721 -999 -832 -74 -17 -139 -21 -476 -28 -399 -9
-505 -19 -665 -63 -421 -117 -738 -363 -946 -732 -64 -113 -115 -253 -154
-420 -18 -77 -22 -137 -29 -415 -10 -485 -8 -596 14 -655 68 -184 267 -283
422 -211 68 32 138 98 171 161 l27 50 7 410 c3 226 11 428 16 450 19 82 45
170 53 179 5 6 9 16 9 23 0 23 48 117 98 193 84 127 201 224 357 296 168 77
226 86 630 89 256 2 365 7 440 19 104 17 325 70 360 86 11 5 40 16 65 24 129
41 302 126 450 219 177 112 382 311 527 512 105 145 184 306 252 511 72 220
85 306 86 569 0 193 -3 234 -23 330 -23 107 -67 253 -99 325 -53 118 -79 166
-139 255 -80 120 -95 139 -187 233 l-71 74 -2 181 c-2 263 -39 419 -153 644
-203 403 -564 704 -1018 848 -75 24 -88 39 -102 118 -12 72 -52 208 -78 267
-121 273 -197 388 -383 584 -116 121 -241 219 -425 334 -175 108 -480 217
-727 258 -140 24 -169 26 -333 20 -173 -6 -248 -16 -390 -51 -61 -16 -68 -16
-84 -1 -10 9 -21 13 -26 9 -4 -5 -5 -3 -2 3 13 22 -152 143 -291 213 -273 137
-557 207 -872 216 -102 3 -209 -1 -281 -9z m-1252 -522 c-3 -3 -12 -4 -19 -1
-8 3 -5 6 6 6 11 1 17 -2 13 -5z"/>
<path d="M3165 9794 c-298 -59 -470 -136 -676 -302 -101 -81 -188 -176 -281
-303 -116 -159 -194 -343 -235 -551 -17 -88 -18 -229 -18 -2793 0 -2545 1
-2705 18 -2782 92 -428 368 -785 755 -977 50 -25 97 -46 105 -46 7 0 17 -4 22
-9 13 -12 133 -50 220 -69 60 -13 238 -16 1250 -21 l1180 -6 -2 -115 c-3 -126
-19 -400 -33 -550 -5 -53 -12 -177 -16 -275 -8 -209 -2 -235 66 -284 51 -37
107 -47 167 -30 47 13 114 72 592 528 90 86 198 188 239 226 42 39 181 168
309 288 l234 218 502 -2 c276 -1 529 1 562 5 331 38 630 180 855 406 219 219
358 494 400 790 8 52 10 906 8 2790 l-3 2715 -28 99 c-59 208 -126 344 -243
497 -94 122 -197 219 -329 308 -192 131 -344 192 -582 236 l-134 25 -2417 -1
c-2017 -1 -2429 -3 -2487 -15z m1702 -1555 c34 -12 90 -64 109 -101 23 -43 19
-281 -5 -333 -34 -74 -97 -116 -207 -136 -77 -14 -135 -42 -192 -94 -99 -89
-111 -162 -105 -630 3 -155 0 -328 -5 -385 -30 -317 -229 -578 -539 -705 -47
-19 -54 -25 -38 -31 58 -20 168 -76 230 -117 112 -73 197 -170 263 -302 78
-156 75 -134 82 -675 l5 -485 29 -53 c58 -104 153 -167 298 -197 90 -19 134
-46 165 -100 21 -37 23 -53 23 -201 0 -160 0 -161 -27 -197 -62 -80 -67 -82
-258 -81 -194 0 -264 15 -413 84 -210 99 -409 306 -481 500 -43 117 -44 133
-50 615 -6 461 -7 471 -29 528 -21 50 -76 132 -122 178 -41 41 -107 83 -197
125 -54 25 -126 59 -160 75 -80 38 -138 102 -146 161 -10 70 4 340 19 369 29
57 82 91 263 169 122 52 178 89 245 160 76 83 108 152 117 259 4 47 8 258 8
468 1 409 4 441 56 579 67 178 234 353 435 454 63 32 221 87 283 99 62 13 311
13 344 0z m2033 -11 c128 -41 219 -81 295 -131 148 -98 246 -206 318 -352 86
-173 81 -131 87 -680 6 -535 7 -538 67 -626 36 -52 113 -125 165 -157 20 -13
101 -49 179 -82 228 -95 239 -112 239 -362 l0 -173 -28 -43 c-31 -46 -77 -84
-132 -109 -248 -112 -344 -177 -410 -275 -73 -110 -73 -108 -80 -623 -6 -437
-7 -464 -29 -540 -70 -250 -247 -455 -492 -569 -167 -77 -282 -100 -476 -94
-112 3 -122 5 -160 31 -72 50 -83 83 -83 251 0 167 8 198 63 240 35 27 132 66
163 66 16 0 64 19 119 47 47 24 120 100 146 151 l24 47 5 480 c5 471 6 481 28
545 87 241 221 390 458 508 44 22 90 43 104 47 l25 8 -25 10 c-324 133 -500
324 -576 627 -10 42 -13 151 -14 461 0 407 -6 492 -37 554 -49 96 -131 154
-252 180 -122 25 -182 61 -217 127 -20 39 -20 308 0 347 20 38 80 89 114 97
15 3 32 8 37 10 20 8 341 -7 375 -18z"/>
</g>
</svg>
